<svg width="540" height="963" viewBox="0 0 540 963" fill="none" xmlns="http://www.w3.org/2000/svg">
<g opacity="0.6">
<path d="M179.999 571.573L120 536.933V363.73L179.998 329.09L179.999 571.573Z" fill="#8F7F6B"/>
<path d="M419.998 536.933V502.293L359.998 467.652V571.573L419.998 536.933Z" fill="#8F7F6B"/>
<path d="M359.998 225.166L419.998 190.525V294.448L359.998 259.807V225.166Z" fill="#8F7F6B"/>
</g>
<path fill-rule="evenodd" clip-rule="evenodd" d="M269.998 0L270 0.000419614L449.999 103.923L60.0012 329.088V502.293L0.00152587 467.652L0 155.885L0.00152587 155.883L269.998 0ZM330 103.923L60.0012 259.807V190.525L270 69.2821L330 103.923Z" fill="url(#paint0_linear_1262_6359)"/>
<path d="M509.998 138.564L479.997 155.886V398.371L269.998 277.129L239.999 294.449V606.215L269.998 623.535L299.998 606.215V363.73L509.995 484.973L539.997 467.652V155.884L509.998 138.564Z" fill="url(#paint1_linear_1262_6359)"/>
<path d="M487.48 845.177C479.678 845.177 472.441 843.74 465.768 840.865C459.095 837.991 453.192 834.038 448.059 829.008C443.028 823.875 439.076 817.972 436.201 811.299C433.429 804.523 432.043 797.286 432.043 789.586C432.043 781.886 433.429 774.7 436.201 768.027C439.076 761.252 443.028 755.349 448.059 750.318C453.089 745.185 458.941 741.181 465.614 738.307C472.287 735.432 479.524 733.995 487.326 733.995C495.95 733.995 504.06 735.638 511.657 738.923C519.357 742.208 525.773 746.982 530.906 753.244L517.971 764.947C514.275 760.225 509.758 756.683 504.419 754.322C499.081 751.858 493.383 750.626 487.326 750.626C482.091 750.626 477.266 751.601 472.851 753.552C468.539 755.503 464.741 758.274 461.456 761.868C458.171 765.358 455.604 769.464 453.756 774.187C451.908 778.909 450.984 784.042 450.984 789.586C450.984 795.13 451.908 800.314 453.756 805.139C455.604 809.862 458.171 813.968 461.456 817.458C464.844 820.949 468.745 823.721 473.159 825.774C477.574 827.725 482.45 828.7 487.788 828.7C493.537 828.7 498.722 827.519 503.341 825.158C507.961 822.694 511.76 819.306 514.737 814.995C517.817 810.683 519.716 805.858 520.434 800.519H488.404V784.658H539.991V790.664C539.991 798.466 538.657 805.652 535.988 812.223C533.421 818.793 529.777 824.593 525.054 829.624C520.332 834.551 514.788 838.401 508.423 841.173C502.058 843.842 495.077 845.177 487.48 845.177Z" fill="#B89D7A"/>
<path d="M312.29 843.482V735.688H330.307L386.514 814.07L386.206 735.688H403.607V843.482H387.13L329.383 762.945L329.691 843.482H312.29Z" fill="#B89D7A"/>
<path opacity="0.5" d="M207.408 875.667L269.005 735.688H285.944L224.193 875.667H207.408Z" fill="#B3A593"/>
<path d="M155.334 845.176C146.197 845.176 138.19 843.226 131.311 839.325C124.536 835.424 119.3 829.88 115.604 822.694C111.908 815.507 110.061 807.038 110.061 797.285V735.688H128.54V797.285C128.54 803.65 129.617 809.142 131.773 813.762C134.032 818.382 137.163 821.975 141.167 824.541C145.171 827.108 149.893 828.391 155.334 828.391C160.775 828.391 165.497 827.108 169.501 824.541C173.608 821.975 176.739 818.382 178.895 813.762C181.051 809.142 182.128 803.65 182.128 797.285V735.688H200.607V797.285C200.607 807.038 198.76 815.507 195.064 822.694C191.471 829.88 186.286 835.424 179.511 839.325C172.735 843.226 164.676 845.176 155.334 845.176Z" fill="#B89D7A"/>
<path d="M0 843.482V735.688H48.1993C55.4882 735.688 61.8019 737.126 67.1402 740C72.5812 742.772 76.7903 746.673 79.7675 751.704C82.7447 756.734 84.2333 762.586 84.2333 769.259C84.2333 775.624 82.7447 781.321 79.7675 786.352C76.7903 791.382 72.5812 795.334 67.1402 798.209C61.8019 800.981 55.4882 802.367 48.1993 802.367H18.479V843.482H0ZM18.479 787.276H45.2734C51.8437 787.276 56.8741 785.633 60.3646 782.348C63.8551 778.96 65.6003 774.546 65.6003 769.105C65.6003 763.766 63.8551 759.506 60.3646 756.323C56.8741 753.038 51.8951 751.396 45.4274 751.396H18.479V787.276Z" fill="#B89D7A"/>
<g opacity="0.5">
<path d="M513.24 962.445V958.842L516.69 958.183V934.74L513.24 934.081V930.456H528.356C530.773 930.456 532.846 930.88 534.574 931.73C536.317 932.565 537.657 933.744 538.595 935.267C539.532 936.776 540.001 938.534 540.001 940.54C540.001 942.562 539.532 944.327 538.595 945.835C537.657 947.329 536.317 948.494 534.574 949.329C532.846 950.163 530.773 950.581 528.356 950.581H522.666V958.183L526.115 958.842V962.445H513.24ZM522.666 945.967H528.356C530.231 945.967 531.644 945.462 532.596 944.451C533.549 943.44 534.025 942.151 534.025 940.584C534.025 939.002 533.549 937.691 532.596 936.651C531.644 935.597 530.231 935.07 528.356 935.07H522.666V945.967Z" fill="#B3A593"/>
<path d="M491.726 962.907C489.588 962.907 487.647 962.512 485.904 961.721C484.161 960.915 482.659 959.787 481.4 958.337C480.155 956.873 479.195 955.159 478.522 953.196C477.848 951.219 477.511 949.051 477.511 946.693V946.21C477.511 943.866 477.848 941.713 478.522 939.75C479.195 937.773 480.155 936.059 481.4 934.609C482.659 933.144 484.153 932.009 485.882 931.204C487.625 930.398 489.566 929.995 491.704 929.995C493.886 929.995 495.849 930.398 497.592 931.204C499.35 932.009 500.859 933.144 502.118 934.609C503.378 936.059 504.337 937.773 504.996 939.75C505.67 941.713 506.007 943.866 506.007 946.21V946.693C506.007 949.051 505.67 951.219 504.996 953.196C504.337 955.159 503.378 956.873 502.118 958.337C500.873 959.787 499.372 960.915 497.614 961.721C495.857 962.512 493.894 962.907 491.726 962.907ZM491.726 958.206C493.601 958.206 495.153 957.73 496.384 956.777C497.614 955.811 498.53 954.463 499.13 952.735C499.745 951.006 500.053 948.992 500.053 946.693V946.166C500.053 943.895 499.745 941.903 499.13 940.19C498.515 938.476 497.585 937.136 496.34 936.169C495.109 935.202 493.564 934.719 491.704 934.719C489.888 934.719 488.372 935.202 487.156 936.169C485.94 937.121 485.025 938.454 484.41 940.168C483.809 941.881 483.509 943.881 483.509 946.166V946.693C483.509 948.978 483.809 950.992 484.41 952.735C485.025 954.463 485.94 955.811 487.156 956.777C488.386 957.73 489.91 958.206 491.726 958.206Z" fill="#B3A593"/>
<path d="M437.844 962.445V958.842L441.293 958.183V934.74L437.844 934.081V930.456H450.719V934.081L447.269 934.74V944.363H460.781V934.74L457.332 934.081V930.456H470.207V934.081L466.758 934.74V958.183L470.207 958.842V962.445H457.332V958.842L460.781 958.183V948.977H447.269V958.183L450.719 958.842V962.445H437.844Z" fill="#B3A593"/>
<path d="M418.887 962.907C416.616 962.907 414.522 962.643 412.603 962.116C410.699 961.574 408.839 960.666 407.022 959.391V951.833H411.636L412.339 956.491C413.057 957.048 413.987 957.494 415.13 957.831C416.287 958.168 417.539 958.337 418.887 958.337C420.117 958.337 421.15 958.168 421.985 957.831C422.834 957.48 423.479 956.989 423.918 956.359C424.357 955.715 424.577 954.968 424.577 954.118C424.577 953.298 424.379 952.58 423.984 951.965C423.588 951.335 422.937 950.771 422.029 950.273C421.135 949.761 419.919 949.277 418.381 948.823C415.921 948.135 413.87 947.351 412.23 946.472C410.589 945.594 409.359 944.539 408.538 943.309C407.733 942.064 407.33 940.584 407.33 938.871C407.33 937.157 407.799 935.641 408.736 934.323C409.688 932.99 410.999 931.943 412.669 931.181C414.353 930.419 416.287 930.031 418.469 930.016C420.901 929.987 423.046 930.287 424.907 930.917C426.767 931.547 428.356 932.397 429.674 933.466V940.496H425.17L424.357 936.08C423.772 935.685 423.003 935.348 422.05 935.07C421.098 934.791 420 934.652 418.755 934.652C417.686 934.652 416.741 934.821 415.921 935.158C415.1 935.48 414.456 935.956 413.987 936.586C413.519 937.215 413.284 937.97 413.284 938.849C413.284 939.61 413.489 940.277 413.899 940.848C414.309 941.419 414.998 941.947 415.965 942.43C416.931 942.913 418.242 943.411 419.897 943.924C423.398 944.876 426.049 946.165 427.851 947.791C429.667 949.402 430.575 951.496 430.575 954.074C430.575 955.861 430.084 957.421 429.103 958.754C428.136 960.072 426.774 961.098 425.017 961.83C423.274 962.548 421.23 962.907 418.887 962.907Z" fill="#B3A593"/>
<path d="M376.202 954.316L373.104 950.735L388.659 934.454L388.703 934.366L385.715 934.081V930.456H398.261V934.081L395.251 934.674L376.202 954.316ZM367.897 962.445V958.842L371.346 958.183V934.74L367.897 934.081V930.456H380.64V934.081L377.322 934.74V958.183L380.64 958.842V962.445H367.897ZM386.418 962.445V958.842L389.34 958.556V958.534L381.057 947.109L384.924 943.045L396.305 958.293L399.403 958.842V962.445H386.418Z" fill="#B3A593"/>
<path d="M332.554 962.445V958.842L336.004 958.183V934.74L332.554 934.081V930.456H347.538C349.955 930.456 352.028 930.829 353.756 931.576C355.499 932.323 356.825 933.4 357.733 934.806C358.656 936.212 359.117 937.896 359.117 939.859C359.117 941.734 358.663 943.389 357.755 944.825C356.847 946.26 355.572 947.388 353.932 948.208C352.306 949.014 350.417 949.424 348.263 949.438L341.98 949.46V958.183L345.429 958.842V962.445H332.554ZM353.251 962.445L347.494 948.164L352.987 947.044L357.909 958.227L360.523 958.798V962.445H353.251ZM341.98 944.847H347.341C349.318 944.847 350.783 944.444 351.735 943.638C352.687 942.818 353.163 941.631 353.163 940.079C353.163 938.556 352.694 937.34 351.757 936.432C350.819 935.524 349.413 935.07 347.538 935.07H341.98V944.847Z" fill="#B3A593"/>
<path d="M311.04 962.907C308.902 962.907 306.961 962.512 305.218 961.721C303.475 960.915 301.973 959.787 300.714 958.337C299.469 956.873 298.509 955.159 297.836 953.196C297.162 951.219 296.825 949.051 296.825 946.693V946.21C296.825 943.866 297.162 941.713 297.836 939.75C298.509 937.773 299.469 936.059 300.714 934.609C301.973 933.144 303.467 932.009 305.196 931.204C306.939 930.398 308.88 929.995 311.018 929.995C313.2 929.995 315.163 930.398 316.906 931.204C318.664 932.009 320.173 933.144 321.432 934.609C322.692 936.059 323.651 937.773 324.31 939.75C324.984 941.713 325.321 943.866 325.321 946.21V946.693C325.321 949.051 324.984 951.219 324.31 953.196C323.651 955.159 322.692 956.873 321.432 958.337C320.187 959.787 318.686 960.915 316.928 961.721C315.171 962.512 313.208 962.907 311.04 962.907ZM311.04 958.206C312.915 958.206 314.467 957.73 315.698 956.777C316.928 955.811 317.844 954.463 318.444 952.735C319.059 951.006 319.367 948.992 319.367 946.693V946.166C319.367 943.895 319.059 941.903 318.444 940.19C317.829 938.476 316.899 937.136 315.654 936.169C314.424 935.202 312.878 934.719 311.018 934.719C309.202 934.719 307.686 935.202 306.47 936.169C305.254 937.121 304.339 938.454 303.724 940.168C303.123 941.881 302.823 943.881 302.823 946.166V946.693C302.823 948.978 303.123 950.992 303.724 952.735C304.339 954.463 305.254 955.811 306.47 956.777C307.7 957.73 309.224 958.206 311.04 958.206Z" fill="#B3A593"/>
<path d="M254.628 962.445L247.201 934.41L244.038 934.081V930.456H256.385V934.081L252.958 934.586L257.55 953.701L257.682 953.723L258.582 950.581L264.932 930.456H269.48L276.027 951.02L276.884 953.942H277.016L277.785 951.02L281.718 934.586L278.114 934.081V930.456H290.22V934.081L287.276 934.41L279.85 962.445H274.379L268.14 943.023L267.349 940.255H267.217L266.36 943.089L260.054 962.445H254.628Z" fill="#B3A593"/>
<path d="M201.25 962.445V958.842L204.699 958.183V935.048H198.57L198.152 939.002H193.648V930.456H221.771V939.002H217.245L216.827 935.048H210.675V958.183L214.147 958.842V962.445H201.25Z" fill="#B3A593"/>
<path d="M161.037 962.445V958.842L164.487 958.183V934.74L161.037 934.081V930.456H186.216V938.98H181.602L181.272 935.07H170.463V944.363H181.777V948.977H170.463V958.183L173.912 958.842V962.445H161.037Z" fill="#B3A593"/>
<path d="M139.544 962.907C137.405 962.907 135.465 962.512 133.722 961.721C131.979 960.915 130.477 959.787 129.218 958.337C127.973 956.873 127.013 955.159 126.339 953.196C125.666 951.219 125.329 949.051 125.329 946.693V946.21C125.329 943.866 125.666 941.713 126.339 939.75C127.013 937.773 127.973 936.059 129.218 934.609C130.477 933.144 131.971 932.009 133.7 931.204C135.443 930.398 137.383 929.995 139.522 929.995C141.704 929.995 143.667 930.398 145.41 931.204C147.168 932.009 148.676 933.144 149.936 934.609C151.196 936.059 152.155 937.773 152.814 939.75C153.488 941.713 153.825 943.866 153.825 946.21V946.693C153.825 949.051 153.488 951.219 152.814 953.196C152.155 955.159 151.196 956.873 149.936 958.337C148.691 959.787 147.19 960.915 145.432 961.721C143.674 962.512 141.712 962.907 139.544 962.907ZM139.544 958.206C141.419 958.206 142.971 957.73 144.202 956.777C145.432 955.811 146.348 954.463 146.948 952.735C147.563 951.006 147.871 948.992 147.871 946.693V946.166C147.871 943.895 147.563 941.903 146.948 940.19C146.333 938.476 145.403 937.136 144.158 936.169C142.927 935.202 141.382 934.719 139.522 934.719C137.706 934.719 136.19 935.202 134.974 936.169C133.758 937.121 132.843 938.454 132.228 940.168C131.627 941.881 131.327 943.881 131.327 946.166V946.693C131.327 948.978 131.627 950.992 132.228 952.735C132.843 954.463 133.758 955.811 134.974 956.777C136.204 957.73 137.728 958.206 139.544 958.206Z" fill="#B3A593"/>
<path d="M106.262 962.907C103.992 962.907 101.898 962.643 99.9788 962.116C98.0747 961.574 96.2145 960.666 94.3983 959.391V951.833H99.0121L99.7152 956.491C100.433 957.048 101.363 957.494 102.505 957.831C103.663 958.168 104.915 958.337 106.262 958.337C107.493 958.337 108.525 958.168 109.36 957.831C110.21 957.48 110.854 956.989 111.294 956.359C111.733 955.715 111.953 954.968 111.953 954.118C111.953 953.298 111.755 952.58 111.36 951.965C110.964 951.335 110.312 950.771 109.404 950.273C108.511 949.761 107.295 949.277 105.757 948.823C103.296 948.135 101.246 947.351 99.6053 946.472C97.9649 945.594 96.7345 944.539 95.9143 943.309C95.1087 942.064 94.7059 940.584 94.7059 938.871C94.7059 937.157 95.1746 935.641 96.112 934.323C97.0641 932.99 98.375 931.943 100.045 931.181C101.729 930.419 103.663 930.031 105.845 930.016C108.276 929.987 110.422 930.287 112.282 930.917C114.143 931.547 115.732 932.397 117.05 933.466V940.496H112.546L111.733 936.08C111.147 935.685 110.378 935.348 109.426 935.07C108.474 934.791 107.376 934.652 106.131 934.652C105.061 934.652 104.117 934.821 103.296 935.158C102.476 935.48 101.832 935.956 101.363 936.586C100.894 937.215 100.66 937.97 100.66 938.849C100.66 939.61 100.865 940.277 101.275 940.848C101.685 941.419 102.374 941.947 103.34 942.43C104.307 942.913 105.618 943.411 107.273 943.924C110.774 944.876 113.425 946.165 115.227 947.791C117.043 949.402 117.951 951.496 117.951 954.074C117.951 955.861 117.46 957.421 116.479 958.754C115.512 960.072 114.15 961.098 112.392 961.83C110.649 962.548 108.606 962.907 106.262 962.907Z" fill="#B3A593"/>
<path d="M58.1697 962.445V958.842L61.6191 958.183V934.74L58.1697 934.081V930.456H73.1537C75.5705 930.456 77.6431 930.829 79.3715 931.576C81.1145 932.323 82.44 933.4 83.3482 934.806C84.2709 936.212 84.7323 937.896 84.7323 939.859C84.7323 941.734 84.2782 943.389 83.3701 944.825C82.462 946.26 81.1877 947.388 79.5472 948.208C77.9214 949.014 76.0319 949.424 73.8788 949.438L67.5951 949.46V958.183L71.0445 958.842V962.445H58.1697ZM78.8661 962.445L73.1098 948.164L78.6025 947.044L83.5239 958.227L86.1384 958.798V962.445H78.8661ZM67.5951 944.847H72.956C74.9334 944.847 76.3981 944.444 77.3501 943.638C78.3022 942.818 78.7782 941.631 78.7782 940.079C78.7782 938.556 78.3095 937.34 77.3721 936.432C76.4347 935.524 75.0286 935.07 73.1537 935.07H67.5951V944.847Z" fill="#B3A593"/>
<path d="M38.12 962.445V958.842L41.5694 958.183V934.74L38.12 934.081V930.456H50.9949V934.081L47.5455 934.74V958.183L50.9949 958.842V962.445H38.12Z" fill="#B3A593"/>
<path d="M0 962.445V958.842L2.30693 958.512L12.6991 930.456H18.6532L28.9574 958.512L31.2424 958.842V962.445H20.7184V958.842L22.9814 958.424L21.4215 953.723H9.84289L8.28297 958.424L10.524 958.842V962.445H0ZM11.3149 949.219H19.9494L16.0167 937.838L15.7091 936.915H15.5773L15.2477 937.882L11.3149 949.219Z" fill="#B3A593"/>
</g>
<defs>
<linearGradient id="paint0_linear_1262_6359" x1="436" y1="-9.50002" x2="-70.5" y2="353" gradientUnits="userSpaceOnUse">
<stop stop-color="#C5A780"/>
<stop offset="1" stop-color="#A68D6C"/>
</linearGradient>
<linearGradient id="paint1_linear_1262_6359" x1="108.5" y1="733" x2="566" y2="105.5" gradientUnits="userSpaceOnUse">
<stop stop-color="#C9AA83"/>
<stop offset="0.829752" stop-color="#816744"/>
</linearGradient>
</defs>
</svg>
